<mxfile host="app.diagrams.net" agent="Mozilla/5.0 (Windows NT 10.0; Win64; x64) AppleWebKit/537.36 (KHTML, like Gecko) Chrome/131.0.0.0 Safari/537.36" version="25.0.1">
  <diagram name="Page-1" id="i_iEyG8WwpYys4Z01Bvx">
    <mxGraphModel dx="2350" dy="1983" grid="1" gridSize="10" guides="1" tooltips="1" connect="1" arrows="1" fold="1" page="1" pageScale="1" pageWidth="850" pageHeight="1100" math="0" shadow="0">
      <root>
        <mxCell id="0" />
        <mxCell id="1" parent="0" />
        <mxCell id="F2qC7Blam01HhqX9r1j5-35" value="" style="edgeStyle=orthogonalEdgeStyle;rounded=0;orthogonalLoop=1;jettySize=auto;html=1;exitX=0.096;exitY=0.5;exitDx=0;exitDy=0;exitPerimeter=0;" edge="1" parent="1" source="F2qC7Blam01HhqX9r1j5-2" target="F2qC7Blam01HhqX9r1j5-25">
          <mxGeometry relative="1" as="geometry">
            <Array as="points" />
          </mxGeometry>
        </mxCell>
        <mxCell id="F2qC7Blam01HhqX9r1j5-2" value="&lt;div&gt;Internet&amp;nbsp; Access&lt;/div&gt;" style="ellipse;shape=cloud;whiteSpace=wrap;html=1;" vertex="1" parent="1">
          <mxGeometry x="1690" y="85" width="150" height="100" as="geometry" />
        </mxCell>
        <mxCell id="F2qC7Blam01HhqX9r1j5-6" value="" style="edgeStyle=orthogonalEdgeStyle;rounded=0;orthogonalLoop=1;jettySize=auto;html=1;dashed=1;" edge="1" parent="1" source="F2qC7Blam01HhqX9r1j5-3" target="F2qC7Blam01HhqX9r1j5-5">
          <mxGeometry relative="1" as="geometry" />
        </mxCell>
        <mxCell id="F2qC7Blam01HhqX9r1j5-3" value="Router 1&lt;div&gt;(removed)&lt;/div&gt;" style="rounded=0;whiteSpace=wrap;html=1;" vertex="1" parent="1">
          <mxGeometry x="1080" y="-200" width="120" height="60" as="geometry" />
        </mxCell>
        <mxCell id="F2qC7Blam01HhqX9r1j5-4" value="" style="endArrow=classic;html=1;rounded=0;entryX=1;entryY=0.5;entryDx=0;entryDy=0;exitX=0.459;exitY=0.132;exitDx=0;exitDy=0;exitPerimeter=0;dashed=1;" edge="1" parent="1" source="F2qC7Blam01HhqX9r1j5-2" target="F2qC7Blam01HhqX9r1j5-3">
          <mxGeometry width="50" height="50" relative="1" as="geometry">
            <mxPoint x="1220" y="210" as="sourcePoint" />
            <mxPoint x="1000" y="300" as="targetPoint" />
            <Array as="points">
              <mxPoint x="1759" y="-170" />
              <mxPoint x="1539" y="-170" />
              <mxPoint x="1270" y="-170" />
              <mxPoint x="1230" y="-170" />
            </Array>
          </mxGeometry>
        </mxCell>
        <mxCell id="F2qC7Blam01HhqX9r1j5-12" style="edgeStyle=orthogonalEdgeStyle;rounded=0;orthogonalLoop=1;jettySize=auto;html=1;exitX=0.017;exitY=0.14;exitDx=0;exitDy=0;entryX=1;entryY=0.5;entryDx=0;entryDy=0;curved=1;exitPerimeter=0;" edge="1" parent="1" source="F2qC7Blam01HhqX9r1j5-5" target="F2qC7Blam01HhqX9r1j5-7">
          <mxGeometry relative="1" as="geometry">
            <mxPoint x="550" y="210" as="sourcePoint" />
          </mxGeometry>
        </mxCell>
        <mxCell id="F2qC7Blam01HhqX9r1j5-13" style="edgeStyle=orthogonalEdgeStyle;rounded=0;orthogonalLoop=1;jettySize=auto;html=1;exitX=0;exitY=0.5;exitDx=0;exitDy=0;entryX=1;entryY=0.5;entryDx=0;entryDy=0;curved=1;" edge="1" parent="1" source="F2qC7Blam01HhqX9r1j5-5" target="F2qC7Blam01HhqX9r1j5-8">
          <mxGeometry relative="1" as="geometry" />
        </mxCell>
        <mxCell id="F2qC7Blam01HhqX9r1j5-16" style="edgeStyle=orthogonalEdgeStyle;rounded=0;orthogonalLoop=1;jettySize=auto;html=1;exitX=0;exitY=0.75;exitDx=0;exitDy=0;entryX=1;entryY=0.5;entryDx=0;entryDy=0;curved=1;" edge="1" parent="1" source="F2qC7Blam01HhqX9r1j5-5" target="F2qC7Blam01HhqX9r1j5-10">
          <mxGeometry relative="1" as="geometry" />
        </mxCell>
        <mxCell id="F2qC7Blam01HhqX9r1j5-33" style="edgeStyle=orthogonalEdgeStyle;rounded=0;orthogonalLoop=1;jettySize=auto;html=1;exitX=0.5;exitY=1;exitDx=0;exitDy=0;entryX=0.5;entryY=0;entryDx=0;entryDy=0;" edge="1" parent="1" source="F2qC7Blam01HhqX9r1j5-5" target="F2qC7Blam01HhqX9r1j5-30">
          <mxGeometry relative="1" as="geometry">
            <Array as="points">
              <mxPoint x="680" y="420" />
              <mxPoint x="625" y="420" />
            </Array>
          </mxGeometry>
        </mxCell>
        <mxCell id="F2qC7Blam01HhqX9r1j5-34" style="edgeStyle=orthogonalEdgeStyle;rounded=0;orthogonalLoop=1;jettySize=auto;html=1;exitX=0.25;exitY=1;exitDx=0;exitDy=0;" edge="1" parent="1" source="F2qC7Blam01HhqX9r1j5-5" target="F2qC7Blam01HhqX9r1j5-31">
          <mxGeometry relative="1" as="geometry">
            <Array as="points">
              <mxPoint x="640" y="250" />
              <mxPoint x="640" y="370" />
              <mxPoint x="490" y="370" />
            </Array>
          </mxGeometry>
        </mxCell>
        <mxCell id="F2qC7Blam01HhqX9r1j5-38" style="edgeStyle=orthogonalEdgeStyle;rounded=0;orthogonalLoop=1;jettySize=auto;html=1;exitX=0.5;exitY=1;exitDx=0;exitDy=0;entryX=0.5;entryY=0;entryDx=0;entryDy=0;" edge="1" parent="1" source="F2qC7Blam01HhqX9r1j5-5" target="F2qC7Blam01HhqX9r1j5-29">
          <mxGeometry relative="1" as="geometry" />
        </mxCell>
        <mxCell id="F2qC7Blam01HhqX9r1j5-39" style="edgeStyle=orthogonalEdgeStyle;rounded=0;orthogonalLoop=1;jettySize=auto;html=1;exitX=0.75;exitY=1;exitDx=0;exitDy=0;entryX=0.5;entryY=0;entryDx=0;entryDy=0;" edge="1" parent="1" source="F2qC7Blam01HhqX9r1j5-5" target="F2qC7Blam01HhqX9r1j5-23">
          <mxGeometry relative="1" as="geometry" />
        </mxCell>
        <mxCell id="F2qC7Blam01HhqX9r1j5-5" value="Network Switch" style="rounded=0;whiteSpace=wrap;html=1;" vertex="1" parent="1">
          <mxGeometry x="620" y="110" width="350" height="140" as="geometry" />
        </mxCell>
        <mxCell id="F2qC7Blam01HhqX9r1j5-7" value="PCS #1" style="rounded=0;whiteSpace=wrap;html=1;" vertex="1" parent="1">
          <mxGeometry x="380" y="60" width="120" height="60" as="geometry" />
        </mxCell>
        <mxCell id="F2qC7Blam01HhqX9r1j5-8" value="PCS #2" style="rounded=0;whiteSpace=wrap;html=1;" vertex="1" parent="1">
          <mxGeometry x="380" y="140" width="120" height="60" as="geometry" />
        </mxCell>
        <mxCell id="F2qC7Blam01HhqX9r1j5-9" value="PCS #3" style="rounded=0;whiteSpace=wrap;html=1;" vertex="1" parent="1">
          <mxGeometry x="380" y="220" width="120" height="60" as="geometry" />
        </mxCell>
        <mxCell id="F2qC7Blam01HhqX9r1j5-10" value="PCS #4" style="rounded=0;whiteSpace=wrap;html=1;" vertex="1" parent="1">
          <mxGeometry x="380" y="300" width="120" height="60" as="geometry" />
        </mxCell>
        <mxCell id="F2qC7Blam01HhqX9r1j5-14" style="edgeStyle=orthogonalEdgeStyle;rounded=0;orthogonalLoop=1;jettySize=auto;html=1;exitX=-0.009;exitY=0.604;exitDx=0;exitDy=0;entryX=1.03;entryY=0.633;entryDx=0;entryDy=0;entryPerimeter=0;curved=1;exitPerimeter=0;" edge="1" parent="1" source="F2qC7Blam01HhqX9r1j5-5" target="F2qC7Blam01HhqX9r1j5-9">
          <mxGeometry relative="1" as="geometry" />
        </mxCell>
        <mxCell id="F2qC7Blam01HhqX9r1j5-17" value="IPv4 address: 192.168.0.???&lt;div&gt;Subnet mask: 255.255.255.0&lt;/div&gt;" style="text;html=1;align=center;verticalAlign=middle;resizable=0;points=[];autosize=1;strokeColor=none;fillColor=none;" vertex="1" parent="1">
          <mxGeometry x="1530" y="770" width="180" height="40" as="geometry" />
        </mxCell>
        <mxCell id="F2qC7Blam01HhqX9r1j5-19" value="&lt;span style=&quot;font-size:11.0pt;line-height:115%;&lt;br/&gt;font-family:&amp;quot;Calibri&amp;quot;,sans-serif;mso-ascii-theme-font:minor-latin;mso-fareast-font-family:&lt;br/&gt;SimSun;mso-fareast-theme-font:minor-fareast;mso-hansi-theme-font:minor-latin;&lt;br/&gt;mso-bidi-font-family:&amp;quot;Times New Roman&amp;quot;;mso-bidi-theme-font:minor-bidi;&lt;br/&gt;mso-ansi-language:EN-US;mso-fareast-language:EN-US;mso-bidi-language:AR-SA&quot;&gt;IPv4 address: 192.168.0.31&lt;/span&gt;" style="text;html=1;align=center;verticalAlign=middle;resizable=0;points=[];autosize=1;strokeColor=none;fillColor=none;" vertex="1" parent="1">
          <mxGeometry x="170" y="75" width="200" height="30" as="geometry" />
        </mxCell>
        <mxCell id="F2qC7Blam01HhqX9r1j5-20" value="&lt;span style=&quot;font-size:11.0pt;line-height:115%;&lt;br/&gt;font-family:&amp;quot;Calibri&amp;quot;,sans-serif;mso-ascii-theme-font:minor-latin;mso-fareast-font-family:&lt;br/&gt;SimSun;mso-fareast-theme-font:minor-fareast;mso-hansi-theme-font:minor-latin;&lt;br/&gt;mso-bidi-font-family:&amp;quot;Times New Roman&amp;quot;;mso-bidi-theme-font:minor-bidi;&lt;br/&gt;mso-ansi-language:EN-US;mso-fareast-language:EN-US;mso-bidi-language:AR-SA&quot;&gt;IPv4 address: 192.168.0.32&lt;/span&gt;" style="text;html=1;align=center;verticalAlign=middle;resizable=0;points=[];autosize=1;strokeColor=none;fillColor=none;" vertex="1" parent="1">
          <mxGeometry x="170" y="155" width="200" height="30" as="geometry" />
        </mxCell>
        <mxCell id="F2qC7Blam01HhqX9r1j5-21" value="&lt;span style=&quot;font-size:11.0pt;line-height:115%;&lt;br/&gt;font-family:&amp;quot;Calibri&amp;quot;,sans-serif;mso-ascii-theme-font:minor-latin;mso-fareast-font-family:&lt;br/&gt;SimSun;mso-fareast-theme-font:minor-fareast;mso-hansi-theme-font:minor-latin;&lt;br/&gt;mso-bidi-font-family:&amp;quot;Times New Roman&amp;quot;;mso-bidi-theme-font:minor-bidi;&lt;br/&gt;mso-ansi-language:EN-US;mso-fareast-language:EN-US;mso-bidi-language:AR-SA&quot;&gt;IPv4 address: 192.168.0.33&lt;/span&gt;" style="text;html=1;align=center;verticalAlign=middle;resizable=0;points=[];autosize=1;strokeColor=none;fillColor=none;" vertex="1" parent="1">
          <mxGeometry x="170" y="235" width="200" height="30" as="geometry" />
        </mxCell>
        <mxCell id="F2qC7Blam01HhqX9r1j5-22" value="&lt;span style=&quot;font-size:11.0pt;line-height:115%;&lt;br/&gt;font-family:&amp;quot;Calibri&amp;quot;,sans-serif;mso-ascii-theme-font:minor-latin;mso-fareast-font-family:&lt;br/&gt;SimSun;mso-fareast-theme-font:minor-fareast;mso-hansi-theme-font:minor-latin;&lt;br/&gt;mso-bidi-font-family:&amp;quot;Times New Roman&amp;quot;;mso-bidi-theme-font:minor-bidi;&lt;br/&gt;mso-ansi-language:EN-US;mso-fareast-language:EN-US;mso-bidi-language:AR-SA&quot;&gt;IPv4 address: 192.168.0.34&lt;/span&gt;" style="text;html=1;align=center;verticalAlign=middle;resizable=0;points=[];autosize=1;strokeColor=none;fillColor=none;" vertex="1" parent="1">
          <mxGeometry x="170" y="315" width="200" height="30" as="geometry" />
        </mxCell>
        <mxCell id="F2qC7Blam01HhqX9r1j5-23" value="sEMS #4" style="whiteSpace=wrap;html=1;" vertex="1" parent="1">
          <mxGeometry x="865" y="560" width="120" height="60" as="geometry" />
        </mxCell>
        <mxCell id="F2qC7Blam01HhqX9r1j5-24" value="IPv4 address: 192.168.0.24" style="text;html=1;align=center;verticalAlign=middle;resizable=0;points=[];autosize=1;strokeColor=none;fillColor=none;" vertex="1" parent="1">
          <mxGeometry x="850" y="630" width="170" height="30" as="geometry" />
        </mxCell>
        <mxCell id="F2qC7Blam01HhqX9r1j5-26" style="edgeStyle=orthogonalEdgeStyle;rounded=0;orthogonalLoop=1;jettySize=auto;html=1;exitX=0;exitY=0.5;exitDx=0;exitDy=0;entryX=1;entryY=0.5;entryDx=0;entryDy=0;" edge="1" parent="1" source="F2qC7Blam01HhqX9r1j5-25" target="F2qC7Blam01HhqX9r1j5-5">
          <mxGeometry relative="1" as="geometry" />
        </mxCell>
        <mxCell id="F2qC7Blam01HhqX9r1j5-25" value="Control cabinet from client&lt;div&gt;(Router 2)&lt;/div&gt;" style="rounded=0;whiteSpace=wrap;html=1;" vertex="1" parent="1">
          <mxGeometry x="1110" y="-70" width="520" height="410" as="geometry" />
        </mxCell>
        <mxCell id="F2qC7Blam01HhqX9r1j5-28" value="" style="rounded=0;whiteSpace=wrap;html=1;fillColor=none;strokeWidth=4;strokeColor=#33FF33;" vertex="1" parent="1">
          <mxGeometry x="-230" y="620" width="600" height="480" as="geometry" />
        </mxCell>
        <mxCell id="F2qC7Blam01HhqX9r1j5-29" value="sEMS #3" style="whiteSpace=wrap;html=1;" vertex="1" parent="1">
          <mxGeometry x="715" y="560" width="120" height="60" as="geometry" />
        </mxCell>
        <mxCell id="F2qC7Blam01HhqX9r1j5-30" value="sEMS #2" style="whiteSpace=wrap;html=1;" vertex="1" parent="1">
          <mxGeometry x="565" y="560" width="120" height="60" as="geometry" />
        </mxCell>
        <mxCell id="F2qC7Blam01HhqX9r1j5-31" value="sEMS #1" style="whiteSpace=wrap;html=1;" vertex="1" parent="1">
          <mxGeometry x="425" y="560" width="120" height="60" as="geometry" />
        </mxCell>
        <mxCell id="F2qC7Blam01HhqX9r1j5-36" value="Router&lt;div&gt;192.168.0.1&lt;/div&gt;" style="rounded=0;whiteSpace=wrap;html=1;" vertex="1" parent="1">
          <mxGeometry x="1130" y="-50" width="120" height="60" as="geometry" />
        </mxCell>
        <mxCell id="F2qC7Blam01HhqX9r1j5-37" value="site controller&lt;div&gt;&lt;br&gt;&lt;/div&gt;&lt;div&gt;2 virtual machines:&amp;nbsp;&lt;/div&gt;&lt;div&gt;1. Linux: 192.168.0.18&lt;/div&gt;&lt;div&gt;2. Windows: 192.168.0.15&lt;/div&gt;" style="whiteSpace=wrap;html=1;" vertex="1" parent="1">
          <mxGeometry x="1050" y="510" width="300" height="220" as="geometry" />
        </mxCell>
        <mxCell id="F2qC7Blam01HhqX9r1j5-40" value="" style="edgeStyle=none;orthogonalLoop=1;jettySize=auto;html=1;rounded=0;entryX=0.5;entryY=0;entryDx=0;entryDy=0;exitX=0.876;exitY=1.001;exitDx=0;exitDy=0;exitPerimeter=0;" edge="1" parent="1" source="F2qC7Blam01HhqX9r1j5-5" target="F2qC7Blam01HhqX9r1j5-37">
          <mxGeometry width="100" relative="1" as="geometry">
            <mxPoint x="880" y="260" as="sourcePoint" />
            <mxPoint x="980" y="260" as="targetPoint" />
            <Array as="points">
              <mxPoint x="927" y="360" />
              <mxPoint x="1200" y="360" />
            </Array>
          </mxGeometry>
        </mxCell>
        <mxCell id="F2qC7Blam01HhqX9r1j5-41" value="" style="rounded=0;whiteSpace=wrap;html=1;" vertex="1" parent="1">
          <mxGeometry x="1130" y="25" width="120" height="60" as="geometry" />
        </mxCell>
      </root>
    </mxGraphModel>
  </diagram>
</mxfile>
